<?xml version="1.0" encoding="UTF-8" standalone="no"?>
<svg
   viewBox="0 0 1920 1080"
   width="1920"
   height="1080"
   version="1.1"
   id="svg68"
   sodipodi:docname="conference-background.svg"
   inkscape:version="1.4.2 (ebf0e940d0, 2025-05-08)"
   xmlns:inkscape="http://www.inkscape.org/namespaces/inkscape"
   xmlns:sodipodi="http://sodipodi.sourceforge.net/DTD/sodipodi-0.dtd"
   xmlns="http://www.w3.org/2000/svg"
   xmlns:svg="http://www.w3.org/2000/svg">
  <sodipodi:namedview
     id="namedview68"
     pagecolor="#ffffff"
     bordercolor="#000000"
     borderopacity="0.25"
     inkscape:showpageshadow="2"
     inkscape:pageopacity="0.0"
     inkscape:pagecheckerboard="0"
     inkscape:deskcolor="#d1d1d1"
     inkscape:zoom="0.81145357"
     inkscape:cx="788.7081"
     inkscape:cy="51.758969"
     inkscape:window-width="1920"
     inkscape:window-height="1008"
     inkscape:window-x="0"
     inkscape:window-y="0"
     inkscape:window-maximized="1"
     inkscape:current-layer="g32" />
  <defs
     id="defs10">
    <!-- Light gradient background -->
    <linearGradient
       id="bgGradient"
       x1="0%"
       y1="0%"
       x2="100%"
       y2="100%">
      <stop
         offset="0%"
         style="stop-color:#fdfffc"
         id="stop1" />
      <stop
         offset="50%"
         style="stop-color:#eef4d4"
         id="stop2" />
      <stop
         offset="100%"
         style="stop-color:#f5f8e8"
         id="stop3" />
    </linearGradient>
    <linearGradient
       id="accentGradient"
       x1="0%"
       y1="0%"
       x2="100%"
       y2="0%">
      <stop
         offset="0%"
         style="stop-color:#f6511d"
         id="stop4" />
      <stop
         offset="100%"
         style="stop-color:#ff7a47"
         id="stop5" />
    </linearGradient>
    <!-- Flying bird - simple V shape like birds in the sky -->
    <symbol
       id="birdV"
       viewBox="0 0 40 20">
      <path
         d="M0 20 Q10 10, 20 12 Q30 10, 40 20 Q30 14, 20 16 Q10 14, 0 20Z"
         fill="currentColor"
         id="path5" />
    </symbol>
    <!-- Bird silhouette - side view -->
    <symbol
       id="birdSide"
       viewBox="0 0 60 40">
      <path
         d="M0 20 L15 18 L20 10 L25 18 L55 15 L60 18 L55 22 L25 22 L20 35 L18 22 L15 22 L10 25 L5 22 Z"
         fill="currentColor"
         id="path6" />
    </symbol>
    <!-- Soaring bird -->
    <symbol
       id="birdSoar"
       viewBox="0 0 80 30">
      <path
         d="M0 15 Q15 5, 30 12 L40 10 L50 12 Q65 5, 80 15 Q65 12, 50 15 L40 18 L30 15 Q15 12, 0 15Z"
         fill="currentColor"
         id="path7" />
    </symbol>
    <!-- Pixel block -->
    <symbol
       id="pixel"
       viewBox="0 0 20 20">
      <rect
         x="0"
         y="0"
         width="20"
         height="20"
         rx="2"
         fill="currentColor"
         id="rect7" />
    </symbol>
    <!-- D-pad shape -->
    <symbol
       id="dpad"
       viewBox="0 0 60 60">
      <rect
         x="20"
         y="0"
         width="20"
         height="60"
         rx="3"
         fill="currentColor"
         id="rect8" />
      <rect
         x="0"
         y="20"
         width="60"
         height="20"
         rx="3"
         fill="currentColor"
         id="rect9" />
    </symbol>
    <!-- Game controller button -->
    <symbol
       id="button"
       viewBox="0 0 30 30">
      <circle
         cx="15"
         cy="15"
         r="14"
         fill="none"
         stroke="currentColor"
         stroke-width="2"
         id="circle9" />
      <circle
         cx="15"
         cy="15"
         r="8"
         fill="currentColor"
         opacity="0.3"
         id="circle10" />
    </symbol>
    <!-- Feather -->
    <symbol
       id="feather"
       viewBox="0 0 20 60">
      <path
         d="M10 0 C15 15, 18 25, 15 35 C12 30, 10 32, 10 35 C10 32, 8 30, 5 35 C2 25, 5 15, 10 0Z"
         fill="currentColor"
         id="path10" />
      <line
         x1="10"
         y1="35"
         x2="10"
         y2="60"
         stroke="currentColor"
         stroke-width="1.5"
         id="line10" />
    </symbol>
  </defs>
  <!-- Light background -->
  <rect
     width="100%"
     height="100%"
     fill="url(#bgGradient)"
     id="rect10" />
  <!-- Subtle grid pattern (gaming reference) -->
  <g
     opacity="0.04"
     id="g12">
    <pattern
       id="grid"
       width="50"
       height="50"
       patternUnits="userSpaceOnUse">
      <rect
         width="50"
         height="50"
         fill="none"
         stroke="#738290"
         stroke-width="0.5"
         id="rect11" />
    </pattern>
    <rect
       width="100%"
       height="100%"
       fill="url(#grid)"
       id="rect12" />
  </g>
  <!-- Decorative soft circles -->
  <circle
     cx="200"
     cy="150"
     r="250"
     fill="#f6511d"
     opacity="0.06"
     id="circle12" />
  <circle
     cx="1750"
     cy="900"
     r="300"
     fill="#003049"
     opacity="0.04"
     id="circle13" />
  <circle
     cx="960"
     cy="600"
     r="400"
     fill="#738290"
     opacity="0.03"
     id="circle14" />
  <circle
     cx="1400"
     cy="200"
     r="180"
     fill="#f6511d"
     opacity="0.04"
     id="circle15" />
  <!-- Flock of V-birds in the distance (top area) -->
  <g
     fill="#003049"
     opacity="0.15"
     id="g19">
    <use
       href="#birdV"
       x="150"
       y="80"
       width="35"
       height="17"
       id="use15" />
    <use
       href="#birdV"
       x="200"
       y="100"
       width="30"
       height="15"
       id="use16" />
    <use
       href="#birdV"
       x="170"
       y="120"
       width="25"
       height="12"
       id="use17" />
    <use
       href="#birdV"
       x="230"
       y="90"
       width="28"
       height="14"
       id="use18" />
    <use
       href="#birdV"
       x="190"
       y="140"
       width="22"
       height="11"
       id="use19" />
  </g>
  <g
     fill="#003049"
     opacity="0.12"
     id="g23">
    <use
       href="#birdV"
       x="1500"
       y="120"
       width="40"
       height="20"
       id="use20" />
    <use
       href="#birdV"
       x="1560"
       y="100"
       width="35"
       height="17"
       id="use21" />
    <use
       href="#birdV"
       x="1530"
       y="150"
       width="30"
       height="15"
       id="use22" />
    <use
       href="#birdV"
       x="1590"
       y="130"
       width="28"
       height="14"
       id="use23" />
  </g>
  <g
     fill="#738290"
     opacity="0.18"
     id="g27">
    <use
       href="#birdV"
       x="800"
       y="60"
       width="45"
       height="22"
       id="use24" />
    <use
       href="#birdV"
       x="870"
       y="80"
       width="38"
       height="19"
       id="use25" />
    <use
       href="#birdV"
       x="830"
       y="100"
       width="32"
       height="16"
       id="use26" />
    <use
       href="#birdV"
       x="900"
       y="70"
       width="30"
       height="15"
       id="use27" />
  </g>
  <!-- Soaring birds mid-level -->
  <g
     fill="#003049"
     opacity="0.1"
     id="g29">
    <use
       href="#birdSoar"
       x="100"
       y="300"
       width="100"
       height="38"
       transform="rotate(-5 150 319)"
       id="use28" />
    <use
       href="#birdSoar"
       x="1600"
       y="400"
       width="120"
       height="45"
       transform="rotate(8 1660 422)"
       id="use29" />
  </g>
  <g
     fill="#f6511d"
     opacity="0.12"
     id="g30">
    <use
       href="#birdSoar"
       x="1200"
       y="250"
       width="90"
       height="34"
       transform="rotate(-3 1245 267)"
       id="use30" />
  </g>
  <!-- Side-view birds -->
  <g
     fill="#003049"
     opacity="0.08"
     id="g32" />
  <!-- Gaming elements - pixels scattered -->
  <g
     fill="#f6511d"
     opacity="0.2"
     id="g36">
    <use
       href="#pixel"
       x="1750"
       y="250"
       width="16"
       height="16"
       id="use33" />
    <use
       href="#pixel"
       x="1775"
       y="275"
       width="12"
       height="12"
       id="use34" />
    <use
       href="#pixel"
       x="1760"
       y="295"
       width="10"
       height="10"
       id="use35" />
    <use
       href="#pixel"
       x="1790"
       y="260"
       width="8"
       height="8"
       id="use36" />
  </g>
  <g
     fill="#003049"
     opacity="0.1"
     id="g40">
    <use
       href="#pixel"
       x="80"
       y="750"
       width="18"
       height="18"
       id="use37" />
    <use
       href="#pixel"
       x="110"
       y="780"
       width="14"
       height="14"
       id="use38" />
    <use
       href="#pixel"
       x="65"
       y="800"
       width="10"
       height="10"
       id="use39" />
    <use
       href="#pixel"
       x="130"
       y="760"
       width="12"
       height="12"
       id="use40" />
  </g>
  <g
     fill="#738290"
     opacity="0.12"
     id="g43">
    <use
       href="#pixel"
       x="650"
       y="850"
       width="15"
       height="15"
       id="use41" />
    <use
       href="#pixel"
       x="675"
       y="870"
       width="11"
       height="11"
       id="use42" />
    <use
       href="#pixel"
       x="640"
       y="885"
       width="9"
       height="9"
       id="use43" />
  </g>
  <!-- D-pad elements -->
  <g
     fill="#003049"
     opacity="0.06"
     id="g44">
    <use
       href="#dpad"
       x="1650"
       y="700"
       width="70"
       height="70"
       transform="rotate(12 1685 735)"
       id="use44" />
  </g>
  <g
     fill="#738290"
     opacity="0.08"
     id="g45">
    <use
       href="#dpad"
       x="150"
       y="500"
       width="55"
       height="55"
       transform="rotate(-8 177 527)"
       id="use45" />
  </g>
  <!-- Controller buttons -->
  <g
     stroke="#f6511d"
     fill="#f6511d"
     opacity="0.15"
     id="g47">
    <use
       href="#button"
       x="1800"
       y="500"
       width="25"
       height="25"
       id="use46" />
    <use
       href="#button"
       x="1830"
       y="530"
       width="20"
       height="20"
       id="use47" />
  </g>
  <g
     stroke="#003049"
     fill="#003049"
     opacity="0.08"
     id="g48">
    <use
       href="#button"
       x="100"
       y="350"
       width="28"
       height="28"
       id="use48" />
  </g>
  <!-- Floating feathers -->
  <!-- Decorative wave lines -->
  <g
     stroke="#738290"
     stroke-width="1.5"
     opacity="0.08"
     fill="none"
     id="g55">
    <path
       d="M0 700 Q300 660, 600 700 T1200 680 T1920 720"
       id="path54" />
    <path
       d="M0 750 Q400 720, 800 750 T1600 730 T1920 760"
       id="path55" />
  </g>
  <!-- Accent elements -->
  <g
     stroke="#f6511d"
     stroke-width="2"
     opacity="0.1"
     fill="none"
     id="g56">
    <path
       d="M0 900 Q480 860, 960 900 T1920 880"
       id="path56" />
  </g>
  <!-- Corner decorations -->
  <g
     fill="#003049"
     opacity="0.06"
     id="g65">
    <circle
       cx="40"
       cy="40"
       r="4"
       id="circle56" />
    <circle
       cx="70"
       cy="60"
       r="3"
       id="circle57" />
    <circle
       cx="55"
       cy="85"
       r="2"
       id="circle58" />
    <circle
       cx="1880"
       cy="40"
       r="4"
       id="circle59" />
    <circle
       cx="1850"
       cy="65"
       r="3"
       id="circle60" />
    <circle
       cx="1865"
       cy="90"
       r="2"
       id="circle61" />
    <circle
       cx="40"
       cy="1040"
       r="4"
       id="circle62" />
    <circle
       cx="75"
       cy="1020"
       r="3"
       id="circle63" />
    <circle
       cx="1880"
       cy="1040"
       r="4"
       id="circle64" />
    <circle
       cx="1845"
       cy="1015"
       r="3"
       id="circle65" />
  </g>
  <!-- More distant V-birds -->
  <g
     fill="#738290"
     opacity="0.1"
     id="g68">
    <use
       href="#birdV"
       x="450"
       y="180"
       width="32"
       height="16"
       id="use65" />
    <use
       href="#birdV"
       x="490"
       y="200"
       width="28"
       height="14"
       id="use66" />
    <use
       href="#birdV"
       x="1100"
       y="150"
       width="36"
       height="18"
       id="use67" />
    <use
       href="#birdV"
       x="1150"
       y="170"
       width="30"
       height="15"
       id="use68" />
  </g>
  <!-- Subtle bottom accent -->
  <rect
     x="0"
     y="1076"
     width="1920"
     height="4"
     fill="#003049"
     opacity="0.15"
     id="rect68" />
  <!-- AI attribution text -->
</svg>
